<svg id="SvgjsSvg1014" width="288" height="288" xmlns="http://www.w3.org/2000/svg" version="1.1" xmlns:xlink="http://www.w3.org/1999/xlink" xmlns:svgjs="http://svgjs.com/svgjs"><rect id="SvgjsRect1022" width="288" height="288" rx="21" ry="21" transform="matrix(0.09,0,0,0.09,131.04,131.04)" fill="#87ddfd"></rect><defs id="SvgjsDefs1015"></defs><g id="SvgjsG1016" transform="matrix(0.1,0,0,0.1,129.6,129.6)"><svg xmlns="http://www.w3.org/2000/svg" viewBox="0 0 72 72" width="288" height="288"><g fill-rule="evenodd"><rect width="72" height="72" fill="#D4A10F" rx="4" class="svgShape colord4a10f-1 selectable"></rect><path fill="#FFF" d="M34.359 63.807c-1.749-.555-3.408-2.126-4.583-4.338-.272-.511-.494-.968-.494-1.013 0-.13.818-.564.856-.454.018.051.25.428.515.837 1.99 3.065 4.713 3.402 6.004.743.362-.746.534-1.435.742-2.958.298-2.18.757-4.853.963-5.6.577-2.094 1.813-3.747 4.907-6.563 2.693-2.45 3.99-4.357 4.143-6.087.03-.348.026-.633-.009-.633-.035 0-.327.223-.649.495-.321.273-1.073.848-1.67 1.278-1.527 1.101-2.189 1.67-2.64 2.269-.217.286-.422.52-.457.52-.035 0-.23-.485-.435-1.077-.294-.848-.373-1.203-.375-1.669-.003-.698.126-.976.864-1.859.958-1.145 1.45-2.42 1.45-3.76.001-1.426-.65-2.668-2.55-4.867-.846-.98-3.298-3.497-3.406-3.497-.035 0-.054.56-.042 1.246.05 2.848-.517 5.022-2.128 8.147-1.029 1.996-1.246 2.477-1.656 3.679-.433 1.266-.57 1.964-.628 3.208l-.051 1.113-.381.36c-.21.198-.404.338-.431.311-.122-.117-.23-1.817-.185-2.898.085-1.99.573-3.77 1.77-6.463 2.268-5.096 2.856-6.989 2.734-8.796-.05-.75-.12-.983-.897-2.99-.662-1.713-.475-3.384.553-4.942.261-.395.292-.494.214-.676-.05-.117-.251-.561-.446-.987-.6-1.308-.749-1.99-.753-3.45-.004-1.355.1-1.926.515-2.799C36.083 8.88 37.083 8 37.584 8c.355 0 .301.144-.185.498-1.033.75-1.402 2.054-1.049 3.701.367 1.71 1.097 2.92 3.514 5.826 5.712 6.865 8.585 10.891 10.838 15.188 1.432 2.733 2.01 4.161 2.605 6.442.612 2.348.807 4.296.63 6.281-.383 4.32-2.18 7.332-5.267 8.83-2.121 1.03-4.904 1.204-7.4.462-.903-.269-.875-.209-.664-1.418.209-1.2.36-1.669.53-1.65.066.006.496.077.954.157 2.028.352 4.217-.083 5.878-1.17.536-.35 1.515-1.262 1.988-1.85.81-1.011 1.457-2.348 1.837-3.8.28-1.07.386-3.254.214-4.39-.133-.872-.594-2.355-1.114-3.578-1.822-4.286-4.998-8.877-11.862-17.151a71.663 71.663 0 0 1-1.263-1.584c-.386-.5-.73-.909-.766-.909-.118 0-.515.653-.665 1.093-.105.312-.136.618-.108 1.088.076 1.264.63 2.053 3.4 4.85 1.69 1.707 2.646 2.818 3.489 4.054 1.567 2.3 2.133 4.599 1.6 6.505-.053.186-.078.356-.057.376.118.114 1.807-1.362 2.316-2.024.173-.224.346-.374.387-.334.107.102.658 2.248.862 3.356.285 1.542.383 2.645.33 3.69-.06 1.122-.22 1.673-.814 2.778-.605 1.127-1.407 2.073-3.733 4.4-2.3 2.3-3.11 3.255-3.401 4.003-.29.745-.636 2.6-.837 4.482-.296 2.765-.577 4.681-.79 5.373-.317 1.032-.877 1.734-1.69 2.119-.515.244-.679.279-1.423.3-.706.02-.947-.01-1.51-.187zm8.808-3.515c-.665-.317-1.145-1.01-1.65-2.384-.177-.481-.216-.684-.145-.752.151-.146.32.042.531.59.265.686.549 1.135.808 1.275.191.104.259.104.48.002.208-.095.264-.18.286-.435.051-.596.392-.286.666.608.192.628.18.741-.116 1.026-.306.294-.378.3-.86.07zM30.724 22.126c0-.922.656-1.698 1.897-1.698.51 0 .898.205 1.264.597.67.717 1.002 2.13 1.074 4.549.087 2.917-.24 4.144-2.059 7.773-2.065 4.12-2.934 6.236-3.66 8.89-1.025 3.754-1.248 7.412-.66 10.839l.159.93-.299.292c-.2.198-.324.264-.384.206-.15-.144-.52-2.676-.628-4.293-.12-1.816-.05-4.666.146-6.049.306-2.16.83-4.167 1.675-6.416.67-1.783 1.087-2.712 2.418-5.37 1.624-3.245 2.331-4.992 2.248-5.556-.024-.158-.074-.12-.318.248-.555.834-1.555 1.636-3.896 3.121-3.028 1.921-4.38 2.912-5.689 4.17-1.935 1.858-2.914 3.558-3.421 5.943-.136.638-.183 1.167-.18 2.043.002 1.193.155 2.231.317 2.155.048-.023.176-.289.285-.592.266-.738.778-1.42 1.297-1.732a1.993 1.993 0 0 1 1.848-.066c1.392.703 2.667 3.447 2.667 5.735 0 1.146-.266 1.91-.83 2.387-.384.324-.627.394-1.366.394-.783 0-1.516-.354-2.418-1.165l-.677-.61.052.972c.134 2.475 1.236 4.654 2.725 5.38 1.466.716 3.33.437 4.474-.667 1.24-1.195 1.98-3.297 2.561-7.285.334-2.288.518-2.724 1.502-3.554 1.502-1.266 2.65-2.34 3.01-2.817.216-.285.419-.49.45-.457.072.078.43 2.495.43 2.9 0 .655-.356 1.1-2.138 2.669-1.132.996-1.71 1.563-1.776 1.745-.054.148-.165.935-.247 1.748-.627 6.24-1.905 8.57-4.83 8.808-.242.02-.688.005-.993-.032-1.221-.145-2.157-.612-3.18-1.592-2.014-1.93-2.988-4.502-3.12-8.24-.05-1.407-.056-1.454-.384-2.281-1.147-2.895-1.364-5.408-.688-8.022.495-1.914 1.626-3.741 3.246-5.249 1.26-1.173 2.45-1.975 5.952-4.013 2.563-1.492 3.349-2.036 4.156-2.875.747-.777 1.048-1.368 1.094-2.142l.035-.589-.23.159c-.308.254-.708.41-1.146.41-.974 0-1.765-.781-1.765-1.701zm-6.569 22.807c.17.004.332.045.485.121.317.158.783.83.782 1.13 0 .12-.119.411-.26.65-.203.339-.36.483-.72.655a2.347 2.347 0 0 1-1.96.024c-.671-.302-.695-.358-.397-.964.495-1.008 1.334-1.636 2.07-1.616zm12.575 7.541c-1.113-1.03-2.223-2.535-3.028-4.108l-.335-.654.388-.381c.214-.21.433-.38.487-.38.054 0 .253.218.442.485.422.598 1.884 2.064 2.694 2.702.533.42.594.498.54.692-.032.12-.151.65-.264 1.178-.113.529-.225.98-.25 1.004-.025.024-.328-.218-.674-.538zM24.86 39.271c-.317-.32-.404-.726-.309-1.454.055-.418.173-.77.4-1.184.578-1.061 2.4-2.603 2.4-2.032 0 .033-.37.427-.823.875-1.223 1.211-1.624 2.1-1.188 2.633.305.374.871.266.871-.165 0-.239.291-.587.425-.507.136.08.128.36-.024.846-.337 1.08-1.185 1.557-1.751.988zM37.007 38.1c-.222-.773-.154-.879 2.003-3.12.887-.921 1.725-1.822 1.863-2.003.268-.35.28-.343.415.257.06.27.046.421-.063.653-.079.165-.873 1.068-1.766 2.005-.892.937-1.76 1.886-1.93 2.11-.169.223-.335.407-.369.41-.033.003-.102-.138-.153-.312zm-5.041-13.08c0 .94-.79 1.701-1.766 1.701-.975 0-1.765-.761-1.765-1.7 0-.94.79-1.7 1.765-1.7.975 0 1.766.76 1.766 1.7zm6.915 17.327 2.265 1.095-1.22 2.521-2.264-1.095 1.22-2.52zm7.425 4.574 2.264 1.095-1.219 2.521-2.264-1.095 1.219-2.521zm-11.681 5.718 1.947 1.593-1.795 2.194-1.947-1.593 1.795-2.194zm-.442 3.819 1.947 1.592-1.795 2.194-1.947-1.592 1.795-2.194z" class="svgShape colorffffff-2 selectable"></path></g></svg></g></svg>